<svg width="24" height="24" viewBox="0 0 24 24" fill="none" xmlns="http://www.w3.org/2000/svg">
<path d="M19.6209 8.818C19.5049 8.908 17.4569 10.062 17.4569 12.628C17.4569 15.596 20.0629 16.646 20.1409 16.672C20.1289 16.736 19.7269 18.11 18.7669 19.51C17.9109 20.742 17.0169 21.972 15.6569 21.972C14.2969 21.972 13.9469 21.182 12.3769 21.182C10.8469 21.182 10.3029 21.998 9.05889 21.998C7.81489 21.998 6.94689 20.858 5.94889 19.458C4.79289 17.814 3.85889 15.26 3.85889 12.836C3.85889 8.948 6.38689 6.886 8.87489 6.886C10.1969 6.886 11.2989 7.754 12.1289 7.754C12.9189 7.754 14.1509 6.834 15.6549 6.834C16.2249 6.834 18.2729 6.886 19.6209 8.818ZM14.9409 5.188C15.5629 4.45 16.0029 3.426 16.0029 2.402C16.0029 2.26 15.9909 2.116 15.9649 2C14.9529 2.038 13.7489 2.674 13.0229 3.516C12.4529 4.164 11.9209 5.188 11.9209 6.226C11.9209 6.382 11.9469 6.538 11.9589 6.588C12.0229 6.6 12.1269 6.614 12.2309 6.614C13.1389 6.614 14.2809 6.006 14.9409 5.188Z" fill="black"/>
</svg>
