<svg width="24" height="24" viewBox="0 0 24 24" fill="none" xmlns="http://www.w3.org/2000/svg">
<path d="M21.9991 11.0911C21.9991 6.6297 17.5134 3 11.9995 3C6.48568 3 2 6.6297 2 11.0911C2 15.0909 5.55781 18.4402 10.3631 19.0739C10.6883 19.1439 11.1316 19.2879 11.2441 19.5654C11.3453 19.8177 11.3097 20.2121 11.2769 20.4672C11.2769 20.4672 11.1598 21.1709 11.1344 21.3205C11.0904 21.5728 10.9339 22.3064 12.0005 21.8578C13.068 21.4092 17.7589 18.4767 19.8565 16.0694C21.3055 14.4844 22 12.877 22 11.0911H21.9991ZM8.47172 13.477C8.47172 13.5826 8.38643 13.6676 8.28052 13.6676H5.47158C5.36567 13.6676 5.28038 13.5826 5.28038 13.477V13.4742V9.12582C5.28038 9.02022 5.36567 8.93518 5.47158 8.93518H6.18108C6.28605 8.93518 6.37228 9.02115 6.37228 9.12582V12.5798H8.28146C8.38643 12.5798 8.47266 12.6658 8.47266 12.7705V13.4779L8.47172 13.477ZM10.1625 13.477C10.1625 13.5816 10.0772 13.6676 9.97132 13.6676H9.26182C9.15685 13.6676 9.07062 13.5826 9.07062 13.477V9.12582C9.07062 9.02115 9.15591 8.93518 9.26182 8.93518H9.97132C10.0772 8.93518 10.1625 9.02022 10.1625 9.12582V13.477ZM14.9903 13.477C14.9903 13.5816 14.905 13.6676 14.7991 13.6676H14.0943C14.0774 13.6676 14.0605 13.6648 14.0446 13.6611C14.0446 13.6611 14.0427 13.6611 14.0418 13.6611C14.0371 13.6601 14.0334 13.6583 14.0287 13.6573C14.0268 13.6573 14.0249 13.6555 14.0231 13.6555C14.0202 13.6545 14.0165 13.6527 14.0137 13.6517C14.0109 13.6499 14.0071 13.6489 14.0043 13.6471C14.0024 13.6461 14.0006 13.6452 13.9987 13.6443C13.9949 13.6424 13.9903 13.6396 13.9865 13.6368C13.9865 13.6368 13.9846 13.6358 13.9846 13.6349C13.9659 13.6218 13.949 13.6059 13.935 13.5872L11.9358 10.8949V13.4788C11.9358 13.5835 11.8505 13.6695 11.7446 13.6695H11.0351C10.9301 13.6695 10.8439 13.5844 10.8439 13.4788V9.12769C10.8439 9.02302 10.9292 8.93705 11.0351 8.93705H11.7399C11.7399 8.93705 11.7446 8.93705 11.7465 8.93705C11.7502 8.93705 11.753 8.93705 11.7568 8.93705C11.7605 8.93705 11.7633 8.93705 11.7671 8.93798C11.7699 8.93798 11.7727 8.93798 11.7755 8.93892C11.7793 8.93892 11.783 8.94078 11.7868 8.94172C11.7887 8.94172 11.7915 8.94265 11.7933 8.94359C11.7971 8.94452 11.8008 8.94639 11.8046 8.94733C11.8065 8.94733 11.8083 8.9492 11.8111 8.9492C11.8149 8.95106 11.8186 8.952 11.8224 8.95387C11.8243 8.9548 11.8261 8.95574 11.828 8.95667C11.8318 8.95854 11.8355 8.96041 11.8383 8.96228C11.8402 8.96321 11.8421 8.96415 11.8439 8.96602C11.8477 8.96789 11.8505 8.97069 11.8543 8.97256C11.8561 8.97349 11.858 8.97536 11.8599 8.9763C11.8636 8.9791 11.8664 8.9819 11.8702 8.98471C11.8711 8.98564 11.873 8.98658 11.8739 8.98751C11.8777 8.99125 11.8814 8.99499 11.8852 8.99966C11.8852 8.99966 11.8852 8.99966 11.8861 9.00059C11.8917 9.00714 11.8964 9.01368 11.9011 9.02022L13.8975 11.7089V9.12489C13.8975 9.02022 13.9828 8.93424 14.0887 8.93424H14.7982C14.9031 8.93424 14.9894 9.01928 14.9894 9.12489V13.476L14.9903 13.477ZM18.863 9.83232C18.863 9.93792 18.7777 10.023 18.6718 10.023H16.7626V10.7575H18.6718C18.7768 10.7575 18.863 10.8435 18.863 10.9481V11.6556C18.863 11.7612 18.7777 11.8462 18.6718 11.8462H16.7626V12.5808H18.6718C18.7768 12.5808 18.863 12.6667 18.863 12.7714V13.4788C18.863 13.5844 18.7777 13.6695 18.6718 13.6695H15.8629C15.757 13.6695 15.6717 13.5844 15.6717 13.4788V13.476V9.13236V9.12769C15.6717 9.02209 15.757 8.93705 15.8629 8.93705H18.6718C18.7768 8.93705 18.863 9.02302 18.863 9.12769V9.83513V9.83232Z" fill="white"/>
</svg>
